<?xml version="1.0"?>
<!DOCTYPE svg PUBLIC "-//W3C//DTD SVG 1.1//EN" "http://www.w3.org/Graphics/SVG/1.1/DTD/svg11.dtd">
<svg width="400px" height="1000px" viewBox="0 0 400 1000" xmlns="http://www.w3.org/2000/svg" version="1.1">
<g id="Rectangle" transform="translate(0,0) scale(1,-1)">
<path id="Rectangle_w0000"  d="M 400.0 -2.4492935982947064e-14 L -5.684341886080802e-14 1.2246467991473537e-14 L -1.1368683772161603e-13 -1000.0 L 399.9999999999999 -1000.0 L 400.0 -2.4492935982947064e-14 " stroke="#000000" stroke-width="0.35 px" style="stroke-width:0.35;stroke-miterlimit:4;stroke-dasharray:none;fill:none;fill-rule: evenodd "/>
<title>b'Frame'</title>
</g>
<g id="Line" transform="translate(0,0) scale(1,-1)">
<path id="Line_w0000"  d="M 199.9999999999999 -1000.0 L 200.0 2.4492935982947064e-14 " stroke="#000000" stroke-width="0.35 px" style="stroke-width:0.35;stroke-miterlimit:4;stroke-dasharray:none;fill:none;fill-rule: evenodd "/>
<title>b'Vertical Center'</title>
</g>
<g id="Line001" transform="translate(0,0) scale(1,-1)">
<path id="Line001_w0000"  d="M 409.99999999999994 -300.0 L -30.000000000000057 -299.99999999999994 " stroke="#000000" stroke-width="0.35 px" style="stroke-width:0.35;stroke-miterlimit:4;stroke-dasharray:none;fill:none;fill-rule: evenodd "/>
<title>b'Line001'</title>
</g>
<g id="Circle" transform="translate(0,0) scale(1,-1)">
<circle cx="199.99999999999997" cy="-300.0" r="100.0" stroke="#000000" stroke-width="0.35 px" style="stroke-width:0.35;stroke-miterlimit:4;stroke-dasharray:none;fill:none"/>
<title>b'Circle'</title>
</g>
<g id="Circle001" transform="translate(0,0) scale(1,-1)">
<circle cx="199.99999999999997" cy="-300.0" r="150.0" stroke="#000000" stroke-width="0.35 px" style="stroke-width:0.35;stroke-miterlimit:4;stroke-dasharray:none;fill:none"/>
<title>b'Circle001'</title>
</g>
<g id="ShapeString" transform="translate(0,0) scale(1,-1)">
<path id="ShapeString_f0000"  d="M 214.48600198048538 -405.9843548610924 L 214.48600198048538 -424.0123218743588 L 214.41429169005872 -426.96678583993787 L 214.31389728346136 -430.20809096722365 Q 215.96323396327492 -428.55875428741007 216.608626577115 -428.05678225442335 L 220.2228252146195 -425.17402857927095 L 223.43544622573458 -429.1754627850795 L 213.3099532174879 -437.1926732547819 L 207.84562908697518 -437.1926732547819 L 207.84562908697518 -405.9843548610924 L 214.48600198048538 -405.9843548610924 Z " stroke="#000000" stroke-width="0.35 px" style="stroke-width:0.35;stroke-miterlimit:4;stroke-dasharray:none;fill:#cccccc;fill-opacity:1.0;fill-rule: evenodd "/>
<path id="ShapeString_f0001"  d="M 199.49855128131006 -405.9843548610924 L 199.49855128131006 -410.60249756457034 L 191.59607727629034 -418.33286687256606 Q 188.09661510346854 -421.80364492921717 187.0209607470684 -423.1517983892387 Q 185.94530639066824 -424.4999518492602 185.4720184738522 -425.6329744380017 Q 184.99873055703614 -426.78033908482854 184.99873055703614 -428.01375608016735 Q 184.99873055703614 -429.84953951509027 186.0457007972656 -430.73874711638103 Q 187.07832897940972 -431.6422967757572 188.82806006582064 -431.6422967757572 Q 190.64950144265822 -431.6422967757572 192.37054841289844 -430.79611534872237 Q 194.09159538313867 -429.96427597977294 195.97040499231758 -428.41533370655674 L 199.58460362982206 -432.70360907407195 Q 197.26119021999776 -434.68281308984825 195.74093206295223 -435.50031040071235 Q 194.20633184782133 -436.31780771157645 192.3992325290691 -436.7480694541365 Q 190.59213321031686 -437.1926732547819 188.35477214900456 -437.1926732547819 Q 185.40030818342552 -437.1926732547819 183.1486050640279 -436.1313609564671 Q 180.88255988654493 -435.0700486581523 179.63480083312072 -433.1625549328027 Q 178.38704177969657 -431.2550612074531 178.38704177969657 -428.78822721677545 Q 178.38704177969657 -426.67994467823115 179.14717085821934 -424.84416124330824 Q 179.9072999367421 -423.0083778083854 181.51361044229967 -421.07219996686507 Q 183.11992094785722 -419.1360221253448 187.16438132792175 -415.55050760401105 L 191.20884170798627 -411.8645986760799 L 191.20884170798627 -411.57775751437316 L 177.51217623649114 -411.57775751437316 L 177.51217623649114 -405.9843548610924 L 199.49855128131006 -405.9843548610924 Z " stroke="#000000" stroke-width="0.35 px" style="stroke-width:0.35;stroke-miterlimit:4;stroke-dasharray:none;fill:#cccccc;fill-opacity:1.0;fill-rule: evenodd "/>
<title>b'12'</title>
</g>
<g id="ShapeString003" transform="translate(0,0) scale(1,-1)">
<path id="ShapeString003_f0000"  d="M 315.4535251603093 -289.7046252354202 Q 319.36890701760586 -285.2729292870516 327.30006513879624 -285.2729292870516 Q 330.0967664654366 -285.2729292870516 331.54531433205545 -285.5741125068437 L 331.54531433205545 -290.9093581145884 Q 329.7382150133032 -290.464754313943 327.75901099752696 -290.464754313943 Q 324.41731146364384 -290.464754313943 322.26600275084354 -291.3826460314044 Q 320.1146940380433 -292.31487980695124 318.9816714493018 -294.2940838227275 Q 317.834306802475 -296.27328783850373 317.66220210545094 -299.94485470834957 L 317.92035915098694 -299.94485470834957 Q 319.16811820441114 -297.9226245183173 320.8031128261394 -297.1051272074532 Q 322.4381074478676 -296.28762989658907 324.8905993804599 -296.28762989658907 Q 329.00677005095116 -296.28762989658907 331.37320963503146 -298.8261741776934 Q 333.73964921911175 -301.3790605168831 333.73964921911175 -305.91115087184903 Q 333.73964921911175 -310.80179267894835 330.8712376020447 -313.64152017984475 Q 327.98848392689234 -316.48124768074115 323.0404738874517 -316.48124768074115 Q 319.5553537727152 -316.4812476807411 316.9450992011842 -314.8892792332689 Q 314.33484462965316 -313.31165284388203 312.9436649953757 -310.29982064596163 Q 311.5381433030128 -307.30233050612657 311.5381433030128 -303.128791603294 Q 311.5381433030128 -294.1363211837888 315.4535251603093 -289.7046252354202 Z M 326.13835843388404 -309.81219067106025 Q 327.30006513879624 -308.4927213272094 327.30006513879624 -306.0115452784464 Q 327.30006513879624 -303.87457862373145 326.25309489856676 -302.62681957030725 Q 325.19178260025194 -301.39340257496843 323.0404738874517 -301.39340257496843 Q 321.0182436974194 -301.39340257496843 319.58403788888586 -302.62681957030725 Q 318.135490022267 -303.8602365656461 318.135490022267 -305.46654707120365 Q 318.135490022267 -307.8616707714546 319.4836434822885 -309.49666539318287 Q 320.81745488422473 -311.1460020729964 322.91139536468364 -311.1460020729964 Q 324.97665172897194 -311.1460020729964 326.1383584338841 -309.81219067106025 Z " stroke="#000000" stroke-width="0.35 px" style="stroke-width:0.35;stroke-miterlimit:4;stroke-dasharray:none;fill:#cccccc;fill-opacity:1.0;fill-rule: evenodd "/>
<title>b'9'</title>
</g>
<g id="ShapeString004" transform="translate(0,0) scale(1,-1)">
<path id="ShapeString004_f0000"  d="M 299.9127769525632 -249.53332658980983 Q 297.1447597420935 -247.53978051594822 297.1447597420935 -244.1550548078091 Q 297.1447597420935 -241.80295728181414 298.47857114402973 -239.96717384689123 Q 299.8123825459659 -238.14573247005364 302.7811885696303 -236.69718460343478 Q 299.2530422806378 -234.87574322659722 297.71844206550696 -232.89653921082095 Q 296.1838418503761 -230.93167725313003 296.1838418503761 -228.57957972713504 Q 296.1838418503761 -224.8649866830332 299.22435816446716 -222.59894150555024 Q 302.2505324204729 -220.33289632806728 307.19854245991354 -220.33289632806728 Q 312.36168337063424 -220.33289632806728 315.3161473362133 -222.44117886661155 Q 318.25626924370704 -224.54946140515585 318.25626924370704 -228.40747503011102 Q 318.25626924370704 -230.98904548547137 316.8220634351735 -232.98259155933297 Q 315.38785762663997 -234.9904796912799 312.23260484786624 -236.52507990641078 Q 314.9145697098239 -238.1744165862243 316.10496053090674 -240.05322619540323 Q 317.2810092939042 -241.9463778626675 317.2810092939042 -244.1837389239798 Q 317.2810092939042 -247.4824122836069 314.4843079672639 -249.50464247363917 Q 311.68760664062347 -251.54121472175677 307.1842004018282 -251.54121472175677 Q 302.6664521049476 -251.54121472175677 299.91277695256326 -249.53332658980983 Z M 310.812741097418 -226.18445602688405 Q 309.5219558697379 -225.2235381351666 307.2845948084256 -225.2235381351666 Q 304.8034187596626 -225.2235381351666 303.5843438224091 -226.21314014305472 Q 302.3509268270702 -227.20274215094287 302.3509268270702 -228.8090526565004 Q 302.3509268270702 -230.15720611652193 303.57000176432376 -231.31891282143408 Q 304.78907670157724 -232.48061952634623 307.5140677377909 -233.80008887019707 Q 312.1035263250982 -231.8495689705915 312.1035263250982 -228.8520788307564 Q 312.1035263250982 -227.1453739186015 310.81274109741804 -226.18445602688405 Z M 309.98090172846855 -245.84741766187867 Q 311.02787196869804 -245.02992035101457 311.02787196869804 -243.6530827748224 Q 311.02787196869804 -242.43400783756888 310.1960325997486 -241.4587478877661 Q 309.3641932307992 -240.49782999604864 307.19854245991354 -239.47954387198982 Q 305.0902599213693 -240.4117776475366 304.2584205524198 -241.38703759733943 Q 303.41223912538504 -242.36229754714222 303.41223912538504 -243.6530827748224 Q 303.41223912538504 -245.05860446718523 304.4878934817852 -245.86175971996403 Q 305.56354783818534 -246.67925703082813 307.24156863416954 -246.67925703082813 Q 308.9339314882391 -246.67925703082813 309.9809017284686 -245.8474176618787 Z " stroke="#000000" stroke-width="0.35 px" style="stroke-width:0.35;stroke-miterlimit:4;stroke-dasharray:none;fill:#cccccc;fill-opacity:1.0;fill-rule: evenodd "/>
<title>b'8'</title>
</g>
<g id="ShapeString005" transform="translate(0,0) scale(1,-1)">
<path id="ShapeString005_f0000"  d="M 253.3125239538697 -198.81504726728085 L 268.81628874411706 -198.81504726728085 L 268.81628874411706 -204.4084499205616 L 246.25623137588474 -204.4084499205616 L 246.25623137588474 -200.23491101772905 L 258.14579752862767 -173.2001315268721 L 265.11603775810056 -173.2001315268721 L 253.3125239538697 -198.81504726728085 Z " stroke="#000000" stroke-width="0.35 px" style="stroke-width:0.35;stroke-miterlimit:4;stroke-dasharray:none;fill:#cccccc;fill-opacity:1.0;fill-rule: evenodd "/>
<title>b'7'</title>
</g>
<g id="ShapeString006" transform="translate(0,0) scale(1,-1)">
<path id="ShapeString006_f0000"  d="M 206.8564264367444 -186.17541865615127 Q 202.89801840519186 -190.59277254643453 195.02422851634282 -190.59277254643453 Q 192.34226365438514 -190.59277254643453 190.80766343925427 -190.27724726855715 L 190.80766343925427 -184.95634371889778 Q 192.72949922268918 -185.38660546145783 194.59396677378277 -185.38660546145783 Q 198.02171865617788 -185.38660546145783 200.18736942706352 -184.41134551165504 Q 202.3386781398638 -183.45042761993759 203.41433249626394 -181.54293389458797 Q 204.4899868526641 -179.6354401692384 204.69077566585878 -175.92084712513656 L 204.4039345041521 -175.92084712513656 Q 202.28130990752246 -179.57807193689706 197.59145691361783 -179.57807193689706 Q 193.37489183652926 -179.57807193689706 190.99411019436363 -177.01084353962204 Q 188.59898649411264 -174.45795720043236 188.59898649411264 -169.94020890355176 Q 188.59898649411264 -165.06390915453778 191.438713995009 -162.2241816536414 Q 194.27844149590538 -159.38445415274504 199.31250388385806 -159.38445415274504 Q 202.79762399859453 -159.38445415274504 205.3935365120402 -160.94773848404657 Q 207.97510696740056 -162.51102281534813 209.39497071784874 -165.5085129551832 Q 210.8004924102116 -168.50600309501826 210.8004924102116 -172.7225681721068 Q 210.8004924102116 -181.77240682395336 206.8564264367444 -186.17541865615127 Z M 196.17159316316966 -166.0391691043406 Q 195.02422851634282 -167.37298050627678 195.02422851634282 -169.85415655503976 Q 195.02422851634282 -172.00546526784004 196.08554081465763 -173.23888226317888 Q 197.14685311297245 -174.47229925851772 199.29816182577272 -174.47229925851772 Q 201.320392015805 -174.47229925851772 202.75459782433853 -173.23888226317888 Q 204.18880363287204 -172.0198073259254 204.18880363287204 -170.3991547622825 Q 204.18880363287204 -168.00403106203152 202.84065017285053 -166.35469438221796 Q 201.49249671282902 -164.7053577024044 199.42724034854075 -164.7053577024044 Q 197.30461575191111 -164.7053577024044 196.17159316316963 -166.0391691043406 Z " stroke="#000000" stroke-width="0.35 px" style="stroke-width:0.35;stroke-miterlimit:4;stroke-dasharray:none;fill:#cccccc;fill-opacity:1.0;fill-rule: evenodd "/>
<title>b'6'</title>
</g>
<g id="ShapeString007" transform="translate(0,0) scale(1,-1)">
<path id="ShapeString007_f0000"  d="M 128.62309440698255 -194.56641243848748 Q 125.91244542885417 -192.0565522735538 125.91244542885417 -187.6678824994412 Q 125.91244542885417 -182.4903995306352 129.16809261422526 -179.6936982039948 Q 132.40939774151104 -176.89699687735444 138.4617462535225 -176.89699687735444 Q 143.7109395127552 -176.89699687735444 146.93790258195563 -178.589359731424 L 146.93790258195563 -184.28315679130208 Q 145.23119766980074 -183.40829124809665 142.9794945504031 -182.84895098276857 Q 140.71344937292014 -182.30395277552583 138.69121918288786 -182.30395277552583 Q 132.61018655470573 -182.30395277552583 132.61018655470573 -187.12288429219848 Q 132.61018655470573 -191.71234287950574 138.9063500541679 -191.71234287950574 Q 140.05371470099473 -191.71234287950574 141.4305522771869 -191.48286995014038 Q 142.80738985337908 -191.26773907886036 143.6679133384992 -191.02392409140967 L 146.3068520262009 -192.44378784185784 L 145.1308032632034 -208.10531527104393 L 128.0637541416545 -208.10531527104393 L 128.0637541416545 -202.4688864435072 L 139.293585622472 -202.4688864435072 L 139.8816100039707 -196.64601086086108 L 139.12148092544794 -196.7894314417144 Q 137.81635363968243 -197.09061466150646 135.88017579816216 -197.09061466150646 Q 131.31940132702556 -197.09061466150646 128.62309440698252 -194.56641243848745 Z " stroke="#000000" stroke-width="0.35 px" style="stroke-width:0.35;stroke-miterlimit:4;stroke-dasharray:none;fill:#cccccc;fill-opacity:1.0;fill-rule: evenodd "/>
<title>b'5'</title>
</g>
<g id="ShapeString001" transform="translate(0,0) scale(1,-1)">
<path id="ShapeString001_f0000"  d="M 275.54506875294635 -392.7000531032799 L 275.54506875294635 -410.7280201165463 L 275.4733584625196 -413.68248408212537 L 275.3729640559223 -416.92378920941115 Q 277.0223007357359 -415.27445252959757 277.667693349576 -414.77248049661085 L 281.2818919870804 -411.88972682145845 L 284.49451299819555 -415.891161027267 L 274.3690199899488 -423.9083714969694 L 268.9046958594361 -423.9083714969694 L 268.9046958594361 -392.7000531032799 L 275.54506875294635 -392.7000531032799 Z " stroke="#000000" stroke-width="0.35 px" style="stroke-width:0.35;stroke-miterlimit:4;stroke-dasharray:none;fill:#cccccc;fill-opacity:1.0;fill-rule: evenodd "/>
<path id="ShapeString001_f0001"  d="M 250.761992381487 -392.7000531032799 L 250.761992381487 -410.7280201165463 L 250.69028209106034 -413.68248408212537 L 250.589887684463 -416.92378920941115 Q 252.2392243642766 -415.27445252959757 252.88461697811667 -414.77248049661085 L 256.4988156156211 -411.88972682145845 L 259.7114366267362 -415.891161027267 L 249.58594361848952 -423.9083714969694 L 244.1216194879768 -423.9083714969694 L 244.1216194879768 -392.7000531032799 L 250.761992381487 -392.7000531032799 Z " stroke="#000000" stroke-width="0.35 px" style="stroke-width:0.35;stroke-miterlimit:4;stroke-dasharray:none;fill:#cccccc;fill-opacity:1.0;fill-rule: evenodd "/>
<title>b'11'</title>
</g>
<g id="ShapeString002" transform="translate(0,0) scale(1,-1)">
<path id="ShapeString002_f0000"  d="M 321.06696708916684 -347.17991150171747 L 321.06696708916684 -365.20787851498386 L 320.9952567987402 -368.1623424805629 L 320.8948623921428 -371.4036476078487 Q 322.54419907195637 -369.7543109280351 323.1895916857965 -369.2523388950484 L 326.8037903233009 -366.369585219896 L 330.01641133441603 -370.37101942570456 L 319.89091832616936 -378.388229895407 L 314.4265941956566 -378.388229895407 L 314.4265941956566 -347.17991150171747 L 321.06696708916684 -347.17991150171747 Z " stroke="#000000" stroke-width="0.35 px" style="stroke-width:0.35;stroke-miterlimit:4;stroke-dasharray:none;fill:#cccccc;fill-opacity:1.0;fill-rule: evenodd "/>
<path id="ShapeString002_f0001"  d="M 286.9615529622396 -350.99489895241663 Q 289.65785988228265 -347.17991150171747 295.27994665173406 -347.17991150171747 Q 300.71558666607615 -347.17991150171747 303.4836038765458 -351.1096354170993 Q 306.2516210870155 -355.0537013905665 306.2516210870155 -362.75538658239157 Q 306.2516210870155 -370.77259705209394 303.5696562250578 -374.5732424447078 Q 300.8733493050148 -378.38822989540694 295.27994665173406 -378.38822989540694 Q 289.82996457930665 -378.38822989540694 287.04760531075163 -374.4011377476838 Q 284.2652460421966 -370.4283876580459 284.2652460421966 -362.75538658239157 Q 284.2652460421966 -354.8098864031158 286.96155296223964 -350.99489895241663 Z M 298.65033030178785 -354.9102808097132 Q 297.64638623581436 -352.54384122563283 295.27994665173406 -352.54384122563283 Q 292.95653324190977 -352.54384122563283 291.9239050597656 -354.93896492588385 Q 290.89127687762146 -357.34843068422015 290.89127687762146 -362.75538658239157 Q 290.89127687762146 -368.2340527709896 291.93824711785095 -370.6148344131553 Q 292.9708752999951 -373.00995811340624 295.27994665173406 -373.00995811340624 Q 297.6177021196437 -373.00995811340624 298.6359882437025 -370.6148344131553 Q 299.639932309676 -368.2340527709896 299.639932309676 -362.75538658239157 Q 299.639932309676 -357.2910624518788 298.65033030178785 -354.9102808097132 Z " stroke="#000000" stroke-width="0.35 px" style="stroke-width:0.35;stroke-miterlimit:4;stroke-dasharray:none;fill:#cccccc;fill-opacity:1.0;fill-rule: evenodd "/>
<title>b'10'</title>
</g>
<g id="ShapeString008" transform="translate(0,0) scale(1,-1)">
<path id="ShapeString008_f0000"  d="M 86.7052657817963 -228.6473900660936 L 86.7052657817963 -221.87793864981538 L 93.20221809445314 -221.87793864981538 L 93.20221809445314 -228.6473900660936 L 106.62638446232694 -228.6473900660936 L 106.62638446232688 -233.2798748276569 L 92.8436666423197 -253.08625704350487 L 86.70526578179624 -253.08625704350487 L 86.70526578179624 -233.8105309768143 L 82.91896244726775 -233.8105309768143 L 82.9189624472678 -228.6473900660936 L 86.7052657817963 -228.6473900660936 Z M 93.20221809445309 -238.93064571327898 Q 93.20221809445314 -240.20708888287382 93.1018236878558 -242.6452387573808 Q 92.98708722317312 -245.0833886318878 92.92971899083177 -245.47062420019185 L 93.10182368785576 -245.47062420019185 Q 93.89063688254923 -243.7782613461223 95.0093174132054 -242.17195084056476 L 100.77482476351008 -233.8105309768143 L 93.20221809445309 -233.8105309768143 L 93.20221809445309 -238.93064571327898 Z " stroke="#000000" stroke-width="0.35 px" style="stroke-width:0.35;stroke-miterlimit:4;stroke-dasharray:none;fill:#cccccc;fill-opacity:1.0;fill-rule: evenodd "/>
<title>b'4'</title>
</g>
<g id="ShapeString009" transform="translate(0,0) scale(1,-1)">
<path id="ShapeString009_f0000"  d="M 68.42490560609548 -303.36981548108884 Q 70.20332080867708 -301.36192734914187 73.43028387787751 -300.6017982706191 L 73.43028387787751 -300.4727197478511 Q 69.62963848526367 -300.0281159472057 67.67911858565807 -298.26404280270947 Q 65.71425662796715 -296.51431171629855 65.71425662796715 -293.54550569263415 Q 65.71425662796715 -289.21420415086294 69.01292998759425 -286.8047383925266 Q 72.29726128913603 -284.3952726341903 78.40697803348884 -284.3952726341903 Q 83.52709276995353 -284.3952726341903 87.48550080150605 -286.1019775463452 L 87.48550080150608 -291.7527484319673 Q 85.64971736658313 -290.8348567145058 83.45538247952685 -290.2468323330071 Q 81.26104759247055 -289.67315000959366 79.10973887967026 -289.67315000959366 Q 75.82540757812849 -289.67315000959366 74.26212324682696 -290.6914361336525 Q 72.68449685744008 -291.7097222577113 72.68449685744008 -293.9470833190236 Q 72.68449685744008 -295.96931350905584 74.49159617619232 -296.80115287800527 Q 76.29869549494455 -297.64733430504003 80.25710352649709 -297.64733430504003 L 82.63788516866276 -297.64733430504003 L 82.63788516866276 -302.7531069834194 L 80.19973529415574 -302.7531069834194 Q 76.54251048239526 -302.7531069834194 74.86448968641103 -303.6709987008809 Q 73.17212683234148 -304.5888904183423 73.17212683234148 -306.8119094215693 Q 73.17212683234148 -310.22531924587906 77.64684895496606 -310.22531924587906 Q 79.19579122818227 -310.22531924587906 80.80210173373982 -309.709005154807 Q 82.40841223929738 -309.1926910637349 84.35893213890296 -307.9162478941401 L 87.44247462725002 -312.50570648144736 Q 83.13985720164946 -315.6035910278798 77.17356103815001 -315.6035910278798 Q 72.29726128913602 -315.60359102787976 69.47187584632498 -313.6674131863595 Q 66.6321483454286 -311.73123534483926 66.6321483454286 -308.2747993462735 Q 66.6321483454286 -305.3920456711211 68.4249056060955 -303.36981548108884 Z " stroke="#000000" stroke-width="0.35 px" style="stroke-width:0.35;stroke-miterlimit:4;stroke-dasharray:none;fill:#cccccc;fill-opacity:1.0;fill-rule: evenodd "/>
<title>b'3'</title>
</g>
<g id="ShapeString010" transform="translate(0,0) scale(1,-1)">
<path id="ShapeString010_f0000"  d="M 101.3078652010409 -346.9999174095809 L 101.3078652010409 -351.61806011305885 L 93.40539119602118 -359.34842942105456 Q 89.90592902319939 -362.8192074777057 88.83027466679926 -364.1673609377272 Q 87.7546203103991 -365.5155143977487 87.28133239358304 -366.64853698649017 Q 86.80804447676698 -367.79590163331704 86.80804447676698 -369.02931862865586 Q 86.80804447676698 -370.8651020635788 87.85501471699645 -371.75430966486954 Q 88.88764289914059 -372.6578593242457 90.63737398555149 -372.6578593242457 Q 92.45881536238906 -372.6578593242457 94.1798623326293 -371.81167789721087 Q 95.90090930286952 -370.97983852826144 97.77971891204844 -369.43089625504524 L 101.39391754955295 -373.71917162256045 Q 99.07050413972861 -375.69837563833676 97.55024598268308 -376.51587294920085 Q 96.0156457675522 -377.33337026006495 94.20854644879996 -377.763632002625 Q 92.40144713004773 -378.20823580327044 90.16408606873543 -378.20823580327044 Q 87.20962210315636 -378.2082358032704 84.95791898375873 -377.1469235049556 Q 82.69187380627577 -376.0856112066408 81.44411475285159 -374.1781174812912 Q 80.19635569942743 -372.27062375594164 80.19635569942743 -369.80378976526396 Q 80.19635569942743 -367.69550722671966 80.9564847779502 -365.85972379179674 Q 81.71661385647296 -364.0239403568738 83.3229243620305 -362.0877625153536 Q 84.92923486758806 -360.1515846738333 88.9736952476526 -356.56607015249955 L 93.01815562771714 -352.8801612245684 L 93.01815562771714 -352.59332006286166 L 79.32149015622196 -352.59332006286166 L 79.32149015622196 -346.9999174095809 L 101.3078652010409 -346.9999174095809 Z " stroke="#000000" stroke-width="0.35 px" style="stroke-width:0.35;stroke-miterlimit:4;stroke-dasharray:none;fill:#cccccc;fill-opacity:1.0;fill-rule: evenodd "/>
<title>b'2'</title>
</g>
<g id="ShapeString011" transform="translate(0,0) scale(1,-1)">
<path id="ShapeString011_f0000"  d="M 139.6695576439913 -392.1622709252059 L 139.6695576439913 -410.1902379384723 L 139.59784735356465 -413.1447019040514 L 139.49745294696731 -416.38600703133716 Q 141.14678962678084 -414.73667035152357 141.79218224062092 -414.23469831853686 L 145.40638087812542 -411.35194464338446 L 148.6190018892405 -415.353378849193 L 138.49350888099383 -423.3705893188954 L 133.02918475048108 -423.3705893188954 L 133.02918475048108 -392.1622709252059 L 139.6695576439913 -392.1622709252059 Z " stroke="#000000" stroke-width="0.35 px" style="stroke-width:0.35;stroke-miterlimit:4;stroke-dasharray:none;fill:#cccccc;fill-opacity:1.0;fill-rule: evenodd "/>
<title>b'1'</title>
</g>
<g id="Array" transform="translate(0,0) scale(1,-1)">
<path id="Array_w0000"  d="M 199.99999999999997 -300.0 L 199.9999999999999 -562.3237915039062 " stroke="#000000" stroke-width="0.35 px" style="stroke-width:0.35;stroke-miterlimit:4;stroke-dasharray:none;fill:none;fill-rule: evenodd "/>
<path id="Array_w0001"  d="M 199.99999999999997 -300.0 L 331.161895751953 -527.1790674594354 " stroke="#000000" stroke-width="0.35 px" style="stroke-width:0.35;stroke-miterlimit:4;stroke-dasharray:none;fill:none;fill-rule: evenodd "/>
<path id="Array_w0002"  d="M 199.99999999999994 -300.0 L 427.17906745943515 -431.1618957519532 " stroke="#000000" stroke-width="0.35 px" style="stroke-width:0.35;stroke-miterlimit:4;stroke-dasharray:none;fill:none;fill-rule: evenodd "/>
<path id="Array_w0003"  d="M 199.99999999999997 -300.0 L 462.3237915039062 -300.0000000000001 " stroke="#000000" stroke-width="0.35 px" style="stroke-width:0.35;stroke-miterlimit:4;stroke-dasharray:none;fill:none;fill-rule: evenodd "/>
<path id="Array_w0004"  d="M 199.99999999999997 -300.0 L 427.1790674594354 -168.83810424804702 " stroke="#000000" stroke-width="0.35 px" style="stroke-width:0.35;stroke-miterlimit:4;stroke-dasharray:none;fill:none;fill-rule: evenodd "/>
<path id="Array_w0005"  d="M 199.99999999999997 -300.0 L 331.1618957519532 -72.8209325405647 " stroke="#000000" stroke-width="0.35 px" style="stroke-width:0.35;stroke-miterlimit:4;stroke-dasharray:none;fill:none;fill-rule: evenodd "/>
<path id="Array_w0006"  d="M 200.0 -300.0 L 200.0000000000001 -37.67620849609375 " stroke="#000000" stroke-width="0.35 px" style="stroke-width:0.35;stroke-miterlimit:4;stroke-dasharray:none;fill:none;fill-rule: evenodd "/>
<path id="Array_w0007"  d="M 199.99999999999997 -300.0 L 68.83810424804688 -72.82093254056461 " stroke="#000000" stroke-width="0.35 px" style="stroke-width:0.35;stroke-miterlimit:4;stroke-dasharray:none;fill:none;fill-rule: evenodd "/>
<path id="Array_w0008"  d="M 199.99999999999997 -300.0 L -27.17906745943526 -168.83810424804673 " stroke="#000000" stroke-width="0.35 px" style="stroke-width:0.35;stroke-miterlimit:4;stroke-dasharray:none;fill:none;fill-rule: evenodd "/>
<path id="Array_w0009"  d="M 199.99999999999997 -300.0 L -62.323791503906364 -299.99999999999983 " stroke="#000000" stroke-width="0.35 px" style="stroke-width:0.35;stroke-miterlimit:4;stroke-dasharray:none;fill:none;fill-rule: evenodd "/>
<path id="Array_w0010"  d="M 199.99999999999997 -300.0 L -27.179067459435316 -431.16189575195295 " stroke="#000000" stroke-width="0.35 px" style="stroke-width:0.35;stroke-miterlimit:4;stroke-dasharray:none;fill:none;fill-rule: evenodd "/>
<path id="Array_w0011"  d="M 199.99999999999997 -300.0 L 68.8381042480467 -527.1790674594353 " stroke="#000000" stroke-width="0.35 px" style="stroke-width:0.35;stroke-miterlimit:4;stroke-dasharray:none;fill:none;fill-rule: evenodd "/>
<title>b'Array'</title>
</g>
</svg>