<?xml version="1.0"?>
<!DOCTYPE svg PUBLIC "-//W3C//DTD SVG 1.1//EN" "http://www.w3.org/Graphics/SVG/1.1/DTD/svg11.dtd">
<svg width="140px" height="140px" viewBox="0 0 136.6929502214837 141.5843634769299" xmlns="http://www.w3.org/2000/svg" version="1.1">
<g id="ShapeString012" transform="translate(-31.1,-155) scale(0.5,-0.5)">
<path id="ShapeString012_f0000"  d="M 207.24300099024276 -352.99217743054623 L 207.24300099024276 -362.0061609371794 L 207.2071458450294 -363.483392919969 L 207.15694864173074 -365.10404548361186 Q 207.9816169816375 -364.27937714370506 208.30431328855755 -364.0283911272117 L 210.1114126073098 -362.5870142896355 L 211.71772311286736 -364.5877313925398 L 206.654976608744 -368.596336627391 L 203.92281454348765 -368.596336627391 L 203.92281454348765 -352.99217743054623 L 207.24300099024276 -352.99217743054623 Z " stroke="#000000" stroke-width="0.35 px" style="stroke-width:0.35;stroke-miterlimit:4;stroke-dasharray:none;fill:#000000;fill-opacity:1.0;fill-rule: evenodd "/>
<path id="ShapeString012_f0001"  d="M 199.74927564065507 -352.99217743054623 L 199.74927564065507 -355.3012487822852 L 195.79803863814521 -359.16643343628306 Q 194.04830755173433 -360.9018224646086 193.51048037353425 -361.5758991946194 Q 192.97265319533417 -362.2499759246301 192.73600923692615 -362.8164872190009 Q 192.49936527851813 -363.3901695424143 192.49936527851813 -364.00687804008373 Q 192.49936527851813 -364.92476975754516 193.02285039863284 -365.36937355819055 Q 193.53916448970492 -365.8211483878786 194.41403003291038 -365.8211483878786 Q 195.32475072132917 -365.8211483878786 196.18527420644926 -365.3980576743612 Q 197.0457976915694 -364.9821379898865 197.98520249615885 -364.2076668532784 L 199.79230181491107 -366.351804537036 Q 198.63059510999892 -367.34140654492415 197.87046603147616 -367.7501552003562 Q 197.10316592391075 -368.15890385578825 196.1996162645346 -368.3740347270683 Q 195.2960666051585 -368.596336627391 194.17738607450235 -368.596336627391 Q 192.70015409171282 -368.596336627391 191.574302532014 -368.0656804782336 Q 190.44127994327252 -367.5350243290762 189.81740041656042 -366.5812774664014 Q 189.19352088984834 -365.6275306037266 189.19352088984834 -364.3941136083878 Q 189.19352088984834 -363.3399723391156 189.57358542910973 -362.4220806216541 Q 189.9536499683711 -361.5041889041927 190.75680522114988 -360.53609998343256 Q 191.55996047392867 -359.56801106267244 193.58219066396094 -357.7752538020055 L 195.6044208539932 -355.93229933803997 L 195.6044208539932 -355.7888787571866 L 188.7560881182456 -355.7888787571866 L 188.75608811824563 -352.99217743054623 L 199.74927564065507 -352.99217743054623 Z " stroke="#000000" stroke-width="0.35 px" style="stroke-width:0.35;stroke-miterlimit:4;stroke-dasharray:none;fill:#000000;fill-opacity:1.0;fill-rule: evenodd "/>
<title>b'12001'</title>
</g>
<g id="ShapeString013" transform="translate(-31.1,-155) scale(0.5,-0.5)">
<path id="ShapeString013_f0000"  d="M 237.7725343764732 -346.35002655164 L 237.7725343764732 -355.36401005827315 L 237.73667923125987 -356.84124204106274 L 237.6864820279612 -358.4618946047056 Q 238.51115036786797 -357.6372262647988 238.83384667478802 -357.38624024830546 L 240.64094599354024 -355.9448634107292 L 242.2472564990978 -357.94558051363356 L 237.18450999497446 -361.95418574848475 L 234.4523479297181 -361.95418574848475 L 234.4523479297181 -346.35002655164 L 237.7725343764732 -346.35002655164 Z " stroke="#000000" stroke-width="0.35 px" style="stroke-width:0.35;stroke-miterlimit:4;stroke-dasharray:none;fill:#000000;fill-opacity:1.0;fill-rule: evenodd "/>
<path id="ShapeString013_f0001"  d="M 225.38099619074356 -346.35002655164 L 225.38099619074356 -355.36401005827315 L 225.34514104553023 -356.84124204106274 L 225.29494384223153 -358.4618946047056 Q 226.11961218213833 -357.6372262647988 226.44230848905835 -357.38624024830546 L 228.2494078078106 -355.9448634107292 L 229.85571831336816 -357.94558051363356 L 224.79297180924482 -361.95418574848475 L 222.06080974398844 -361.95418574848475 L 222.06080974398844 -346.35002655164 L 225.38099619074356 -346.35002655164 Z " stroke="#000000" stroke-width="0.35 px" style="stroke-width:0.35;stroke-miterlimit:4;stroke-dasharray:none;fill:#000000;fill-opacity:1.0;fill-rule: evenodd "/>
<title>b'11001'</title>
</g>
<g id="ShapeString023" transform="translate(-31.1,-155) scale(0.5,-0.5)">
<path id="ShapeString023_f0000"  d="M 226.6562619769349 -249.40752363364047 L 234.4081443720586 -249.40752363364047 L 234.4081443720586 -252.20422496028084 L 223.1281156879424 -252.20422496028084 L 223.1281156879424 -250.11745550886457 L 229.07289876431386 -236.60006576343608 L 232.55801887905034 -236.60006576343608 L 226.6562619769349 -249.40752363364047 Z " stroke="#000000" stroke-width="0.35 px" style="stroke-width:0.35;stroke-miterlimit:4;stroke-dasharray:none;fill:#000000;fill-opacity:1.0;fill-rule: evenodd "/>
<title>b'7001'</title>
</g>
<g id="ShapeString014" transform="translate(-31.1,-155) scale(0.5,-0.5)">
<path id="ShapeString014_f0000"  d="M 257.7267625801546 -294.8523126177102 Q 259.6844535088029 -292.63646464352587 263.65003256939815 -292.63646464352587 Q 265.04838323271827 -292.63646464352587 265.7726571660277 -292.78705625342195 L 265.7726571660277 -295.45467905729424 Q 264.86910750665163 -295.23237715697155 263.8795054987635 -295.23237715697155 Q 262.2086557318219 -295.23237715697155 261.13300137542177 -295.6913230157023 Q 260.0573470190217 -296.15743990347573 259.4908357246509 -297.14704191136383 Q 258.9171534012375 -298.1366439192519 258.83110105272544 -299.9724273541749 L 258.9601795754935 -299.9724273541749 Q 259.5840591022056 -298.9613122591587 260.40155641306967 -298.5525636037267 Q 261.2190537239338 -298.1438149482946 262.44529969022994 -298.1438149482946 Q 264.5033850254756 -298.1438149482946 265.68660481751573 -299.4130870888468 Q 266.86982460955585 -300.68953025844166 266.86982460955585 -302.95557543592463 Q 266.86982460955585 -305.40089633947423 265.4356188010224 -306.8207600899225 Q 263.99424196344614 -308.24062384037063 261.5202369437259 -308.24062384037063 Q 259.7776768863576 -308.24062384037063 258.47254960059206 -307.4446396166345 Q 257.1674223148266 -306.65582642194113 256.47183249768784 -305.1499103229809 Q 255.7690716515064 -303.65116525306337 255.7690716515064 -301.5643958016471 Q 255.7690716515064 -297.0681605918945 257.7267625801546 -294.8523126177102 Z M 263.0691792169421 -304.9060953355302 Q 263.65003256939815 -304.2463606636048 263.65003256939815 -303.00577263922327 Q 263.65003256939815 -301.9372893118658 263.1265474492834 -301.3134097851537 Q 262.59589130012597 -300.6967012874843 261.5202369437259 -300.6967012874843 Q 260.5091218487097 -300.6967012874843 259.79201894444293 -301.3134097851537 Q 259.0677450111335 -301.9301182828232 259.0677450111335 -302.73327353560194 Q 259.0677450111335 -303.9308353857274 259.74182174114424 -304.74833269659155 Q 260.40872744211237 -305.5730010364983 261.4556976823418 -305.5730010364983 Q 262.488325864486 -305.5730010364983 263.0691792169421 -304.9060953355302 Z " stroke="#000000" stroke-width="0.35 px" style="stroke-width:0.35;stroke-miterlimit:4;stroke-dasharray:none;fill:#000000;fill-opacity:1.0;fill-rule: evenodd "/>
<title>b'9001'</title>
</g>
<g id="ShapeString020" transform="translate(-31.1,-155) scale(0.5,-0.5)">
<path id="ShapeString020_f0000"  d="M 169.83477882199568 -346.081135462603 L 169.83477882199568 -355.09511896923624 L 169.79892367678235 -356.5723509520258 L 169.74872647348366 -358.1930035156687 Q 170.57339481339045 -357.3683351757619 170.8960911203105 -357.11734915926854 L 172.70319043906272 -355.6759723216923 L 174.30950094462028 -357.6766894245966 L 169.24675444049694 -361.6852946594478 L 166.51459237524057 -361.6852946594478 L 166.51459237524057 -346.081135462603 L 169.83477882199568 -346.081135462603 Z " stroke="#000000" stroke-width="0.35 px" style="stroke-width:0.35;stroke-miterlimit:4;stroke-dasharray:none;fill:#000000;fill-opacity:1.0;fill-rule: evenodd "/>
<title>b'12002'</title>
</g>
<g id="ShapeString017" transform="translate(-31.1,-155) scale(0.5,-0.5)">
<path id="ShapeString017_f0000"  d="M 249.95638847628163 -274.766663294905 Q 248.57237987104676 -273.7698902579742 248.57237987104676 -272.07752740390464 Q 248.57237987104676 -270.90147864090716 249.23928557201486 -269.98358692344567 Q 249.90619127298294 -269.0728662350269 251.39059428481514 -268.3485923017175 Q 249.6265211403189 -267.4378716132987 248.85922103275348 -266.44826960541053 Q 248.09192092518805 -265.4658386265651 248.09192092518805 -264.2897898635676 Q 248.09192092518805 -262.43249334151665 249.61217908223358 -261.29947075277516 Q 251.12526621023645 -260.1664481640337 253.59927122995677 -260.1664481640337 Q 256.1808416853171 -260.1664481640337 257.6580736681067 -261.22058943330586 Q 259.1281346218535 -262.274730702578 259.1281346218535 -264.2037375150556 Q 259.1281346218535 -265.49452274273574 258.41103171758675 -266.49129577966653 Q 257.69392881332 -267.49523984564 256.1163024239331 -268.2625399532055 Q 257.45728485491196 -269.0872082931122 258.05248026545337 -270.02661309770167 Q 258.6405046469521 -270.9731889313338 258.6405046469521 -272.09186946199 Q 258.6405046469521 -273.7412061418035 257.24215398363197 -274.7523212368196 Q 255.84380332031174 -275.77060736087844 253.5921002009141 -275.77060736087844 Q 251.3332260524738 -275.77060736087844 249.95638847628163 -274.766663294905 Z M 255.40637054870902 -263.0922280134421 Q 254.76097793486895 -262.6117690675834 253.6422974042128 -262.6117690675834 Q 252.4017093798313 -262.6117690675834 251.79217191120455 -263.1065700715274 Q 251.1754634135351 -263.6013710754715 251.1754634135351 -264.40452632825026 Q 251.1754634135351 -265.078603058261 251.78500088216188 -265.6594564107171 Q 252.39453835078862 -266.2403097631732 253.75703386889546 -266.9000444350986 Q 256.0517631625491 -265.92478448529585 256.0517631625491 -264.4260394153783 Q 256.0517631625491 -263.5726869593008 255.40637054870902 -263.0922280134421 Z M 254.9904508642343 -272.9237088309394 Q 255.51393598434905 -272.5149601755073 255.51393598434905 -271.8265413874113 Q 255.51393598434905 -271.2170039187845 255.0980162998743 -270.7293739438831 Q 254.6820966153996 -270.24891499802436 253.59927122995677 -269.739771935995 Q 252.54512996068465 -270.20588882376836 252.1292102762099 -270.6935187986698 Q 251.70611956269252 -271.1811487735712 251.70611956269252 -271.8265413874113 Q 251.70611956269252 -272.5293022335927 252.2439467408926 -272.9308798599821 Q 252.78177391909267 -273.3396285154141 253.62078431708477 -273.3396285154141 Q 254.46696574411956 -273.3396285154141 254.9904508642343 -272.9237088309394 Z " stroke="#000000" stroke-width="0.35 px" style="stroke-width:0.35;stroke-miterlimit:4;stroke-dasharray:none;fill:#000000;fill-opacity:1.0;fill-rule: evenodd "/>
<title>b'8001'</title>
</g>
<g id="ShapeString022" transform="translate(-31.1,-155) scale(0.5,-0.5)">
<path id="ShapeString022_f0000"  d="M 203.42821321837226 -243.08770932807568 Q 201.449009202596 -245.2963862732173 197.51211425817147 -245.2963862732173 Q 196.17113182719262 -245.2963862732173 195.4038317196272 -245.13862363427862 L 195.4038317196272 -242.47817185944893 Q 196.36474961134465 -242.69330273072896 197.29698338689144 -242.69330273072896 Q 199.010859328089 -242.69330273072896 200.09368471353181 -242.20567275582755 Q 201.16933906993194 -241.72521380996884 201.707166248132 -240.77146694729404 Q 202.2449934263321 -239.81772008461922 202.34538783292945 -237.96042356256834 L 202.2019672520761 -237.96042356256834 Q 201.14065495376127 -239.78903596844856 198.79572845680897 -239.78903596844856 Q 196.6874459182647 -239.78903596844856 195.49705509718189 -238.50542176981105 Q 194.29949324705638 -237.22897860021624 194.29949324705638 -234.9701044517759 Q 194.29949324705638 -232.53195457726895 195.71935699750458 -231.11209082682075 Q 197.13922074795275 -229.69222707637255 199.6562519419291 -229.69222707637255 Q 201.39881199929732 -229.69222707637255 202.69676825602016 -230.47386924202334 Q 203.98755348370034 -231.2555114076741 204.69748535892444 -232.75425647759164 Q 205.40024620510587 -234.25300154750917 205.40024620510587 -236.36128408605344 Q 205.40024620510587 -240.88620341197674 203.42821321837226 -243.08770932807568 Z M 198.08579658158487 -233.01958455217033 Q 197.51211425817147 -233.68649025313843 197.51211425817147 -234.9270782775199 Q 197.51211425817147 -236.00273263392006 198.04277040732887 -236.6194411315895 Q 198.57342655648628 -237.2361496292589 199.6490809128864 -237.2361496292589 Q 200.66019600790256 -237.2361496292589 201.37729891216932 -236.6194411315895 Q 202.09440181643606 -236.00990366296276 202.09440181643606 -235.1995773811413 Q 202.09440181643606 -234.0020155310158 201.42032508642532 -233.17734719110902 Q 200.74624835641458 -232.35267885120226 199.71362017427043 -232.35267885120226 Q 198.65230787595561 -232.35267885120226 198.08579658158487 -233.01958455217033 Z " stroke="#000000" stroke-width="0.35 px" style="stroke-width:0.35;stroke-miterlimit:4;stroke-dasharray:none;fill:#000000;fill-opacity:1.0;fill-rule: evenodd "/>
<title>b'6001'</title>
</g>
<g id="ShapeString021" transform="translate(-31.1,-155) scale(0.5,-0.5)">
<path id="ShapeString021_f0000"  d="M 164.31154720349133 -247.28320621924374 Q 162.95622271442716 -246.02827613677692 162.95622271442716 -243.83394124972062 Q 162.95622271442716 -241.2451997653176 164.5840463071127 -239.8468491019974 Q 166.20469887075558 -238.44849843867723 169.2308731267613 -238.44849843867723 Q 171.85546975637766 -238.44849843867723 173.46895129097788 -239.294679865712 L 173.46895129097788 -242.14157839565107 Q 172.61559883490042 -241.70414562404835 171.4897472752016 -241.4244754913843 Q 170.35672468646013 -241.15197638776294 169.34560959144397 -241.15197638776294 Q 166.3050932773529 -241.15197638776294 166.3050932773529 -243.56144214609924 Q 166.3050932773529 -245.85617143975287 169.453175027084 -245.85617143975287 Q 170.02685735049744 -245.85617143975287 170.7152761385935 -245.7414349750702 Q 171.40369492668958 -245.63386953943018 171.83395666924966 -245.51196204570485 L 173.1534260131005 -246.22189392092895 L 172.56540163160176 -254.052657635522 L 164.0318770708273 -254.052657635522 L 164.03187707082728 -251.23444322175362 L 169.64679281123603 -251.23444322175362 L 169.9408050019854 -248.32300543043056 L 169.56074046272403 -248.39471572085722 Q 168.9081768198413 -248.54530733075325 167.94008789908113 -248.54530733075325 Q 165.65970066351284 -248.54530733075325 164.31154720349133 -247.28320621924374 Z " stroke="#000000" stroke-width="0.35 px" style="stroke-width:0.35;stroke-miterlimit:4;stroke-dasharray:none;fill:#000000;fill-opacity:1.0;fill-rule: evenodd "/>
<title>b'5001'</title>
</g>
<g id="ShapeString018" transform="translate(-31.1,-155) scale(0.5,-0.5)">
<path id="ShapeString018_f0000"  d="M 143.35263289089818 -264.3236950330468 L 143.35263289089818 -260.9389693249077 L 146.6011090472266 -260.9389693249077 L 146.6011090472266 -264.3236950330468 L 153.3131922311635 -264.3236950330468 L 153.3131922311635 -266.6399374138285 L 146.4218333211599 -276.54312852175246 L 143.35263289089818 -276.54312852175246 L 143.35263289089818 -266.90526548840717 L 141.45948122363393 -266.90526548840717 L 141.45948122363393 -264.3236950330468 L 143.35263289089818 -264.3236950330468 Z M 146.6011090472266 -269.4653228566395 Q 146.6011090472266 -270.10354444143695 146.55091184392793 -271.32261937869043 Q 146.49354361158657 -272.5416943159439 146.4648594954159 -272.73531210009594 L 146.55091184392793 -272.73531210009594 Q 146.94531844127465 -271.8891306730612 147.50465870660273 -271.08597542028235 L 150.3874123817551 -266.90526548840717 L 146.6011090472266 -266.90526548840717 L 146.6011090472266 -269.4653228566395 Z " stroke="#000000" stroke-width="0.35 px" style="stroke-width:0.35;stroke-miterlimit:4;stroke-dasharray:none;fill:#000000;fill-opacity:1.0;fill-rule: evenodd "/>
<title>b'4001'</title>
</g>
<g id="ShapeString016" transform="translate(-31.1,-155) scale(0.5,-0.5)">
<path id="ShapeString016_f0000"  d="M 260.5334835445834 -323.58995575085885 L 260.5334835445834 -332.603939257492 L 260.4976283993701 -334.08117124028155 L 260.4474311960714 -335.7018238039244 Q 261.2720995359782 -334.8771554640176 261.5947958428983 -334.62616944752426 L 263.4018951616505 -333.1847926099481 L 265.008205667208 -335.18550971285237 L 259.9454591630847 -339.19411494770355 L 257.21329709782833 -339.19411494770355 L 257.21329709782833 -323.58995575085885 L 260.5334835445834 -323.58995575085885 Z " stroke="#000000" stroke-width="0.35 px" style="stroke-width:0.35;stroke-miterlimit:4;stroke-dasharray:none;fill:#000000;fill-opacity:1.0;fill-rule: evenodd "/>
<path id="ShapeString016_f0001"  d="M 243.48077648111985 -325.49744947620843 Q 244.82892994114135 -323.58995575085885 247.63997332586706 -323.58995575085885 Q 250.3577933330381 -323.58995575085885 251.74180193827294 -325.55481770854976 Q 253.12581054350778 -327.5268506952833 253.12581054350778 -331.3776932911959 Q 253.12581054350778 -335.3862985260471 251.78482811252894 -337.286621222354 Q 250.43667465250743 -339.19411494770355 247.63997332586706 -339.19411494770355 Q 244.91498228965338 -339.19411494770355 243.52380265537585 -337.200568873842 Q 242.13262302109834 -335.21419382902303 242.13262302109834 -331.3776932911959 Q 242.13262302109834 -327.404943201558 243.48077648111985 -325.49744947620843 Z M 249.32516515089395 -327.4551404048567 Q 248.8231931179072 -326.27192061281653 247.63997332586706 -326.27192061281653 Q 246.4782666209549 -326.27192061281653 245.96195252988284 -327.469482462942 Q 245.44563843881076 -328.6742153421102 245.44563843881076 -331.3776932911959 Q 245.44563843881076 -334.1170263854949 245.9691235589255 -335.3074172065777 Q 246.48543764999758 -336.5049790567032 247.63997332586706 -336.5049790567032 Q 248.80885105982188 -336.5049790567032 249.31799412185129 -335.3074172065777 Q 249.81996615483803 -334.1170263854949 249.81996615483803 -331.3776932911959 Q 249.81996615483803 -328.6455312259395 249.32516515089395 -327.4551404048567 Z " stroke="#000000" stroke-width="0.35 px" style="stroke-width:0.35;stroke-miterlimit:4;stroke-dasharray:none;fill:#000000;fill-opacity:1.0;fill-rule: evenodd "/>
<title>b'10001'</title>
</g>
<g id="ShapeString015" transform="translate(-31.1,-155) scale(0.5,-0.5)">
<path id="ShapeString015_f0000"  d="M 134.21245280304777 -301.68490774054453 Q 135.10166040433856 -300.680963674571 136.71514193893879 -300.30089913530963 L 136.71514193893879 -300.2363598739256 Q 134.81481924263187 -300.0140579736029 133.83955929282905 -299.1320214013548 Q 132.8571283139836 -298.25715585814936 132.8571283139836 -296.7727528463172 Q 132.8571283139836 -294.60710207543156 134.50646499379715 -293.4023691962634 Q 136.14863064456804 -292.1976363170952 139.20348901674444 -292.1976363170952 Q 141.7635463849768 -292.1976363170952 143.74275040075304 -293.05098877317266 L 143.74275040075304 -295.87637421598373 Q 142.8248586832916 -295.417428357253 141.72769123976346 -295.1234161665036 Q 140.6305237962353 -294.83657500479694 139.55486943983516 -294.83657500479694 Q 137.91270378906427 -294.83657500479694 137.1310616234135 -295.3457180668263 Q 136.34224842872007 -295.85486112885576 136.34224842872007 -296.97354165951185 Q 136.34224842872007 -297.98465675452803 137.2457980880962 -298.40057643900275 Q 138.1493477474723 -298.8236671525201 140.12855176324857 -298.8236671525201 L 141.3189425843314 -298.8236671525201 L 141.3189425843314 -301.3765534917098 L 140.0998676470779 -301.3765534917098 Q 138.27125524119765 -301.3765534917098 137.43224484320555 -301.8354993504405 Q 136.58606341617076 -302.2944452091713 136.58606341617076 -303.4059547107847 Q 136.58606341617076 -305.11265962293965 138.82342447748306 -305.11265962293965 Q 139.59789561409116 -305.11265962293965 140.40105086686992 -304.8545025774036 Q 141.20420611964872 -304.59634553186754 142.1794660694515 -303.95812394707013 L 143.72123731362507 -306.25285324072377 Q 141.56992860082477 -307.80179551393996 138.58678051907503 -307.80179551393996 Q 136.14863064456804 -307.80179551393996 134.7359379231625 -306.83370659317984 Q 133.31607417271434 -305.8656176724197 133.31607417271434 -304.1373996731368 Q 133.31607417271434 -302.6960228355606 134.21245280304777 -301.68490774054453 Z " stroke="#000000" stroke-width="0.35 px" style="stroke-width:0.35;stroke-miterlimit:4;stroke-dasharray:none;fill:#000000;fill-opacity:1.0;fill-rule: evenodd "/>
<title>b'3001'</title>
</g>
<g id="ShapeString019" transform="translate(-31.1,-155) scale(0.5,-0.5)">
<path id="ShapeString019_f0000"  d="M 150.65393260052048 -323.4999587047905 L 150.65393260052048 -325.80903005652954 L 146.70269559801062 -329.6742147105274 Q 144.95296451159973 -331.4096037388529 144.41513733339966 -332.0836804688637 Q 143.87731015519958 -332.75775719887446 143.64066619679156 -333.3242684932452 Q 143.4040222383835 -333.89795081665864 143.4040222383835 -334.514659314328 Q 143.4040222383835 -335.43255103178944 143.92750735849825 -335.8771548324348 Q 144.44382144957032 -336.32892966212296 145.31868699277578 -336.32892966212296 Q 146.22940768119457 -336.32892966212296 147.08993116631467 -335.9058389486055 Q 147.9504546514348 -335.4899192641308 148.88985945602425 -334.7154481275227 L 150.69695877477648 -336.85958581128034 Q 149.53525206986433 -337.8491878191685 148.77512299134156 -338.2579364746005 Q 148.00782288377613 -338.66668513003253 147.1042732244 -338.8818160013126 Q 146.2007235650239 -339.1041179016353 145.08204303436776 -339.1041179016353 Q 143.60481105157822 -339.1041179016353 142.47895949187938 -338.5734617524779 Q 141.3459369031379 -338.0428056033205 140.72205737642582 -337.08905874064567 Q 140.09817784971375 -336.13531187797093 140.09817784971375 -334.90189488263206 Q 140.09817784971375 -333.84775361335994 140.47824238897513 -332.92986189589845 Q 140.85830692823652 -332.011970178437 141.66146218101528 -331.04388125767684 Q 142.46461743379405 -330.0757923369167 144.48684762382632 -328.28303507624986 L 146.5090778138586 -326.4400806122843 L 146.5090778138586 -326.2966600314309 L 139.660745078111 -326.2966600314309 L 139.660745078111 -323.4999587047905 L 150.65393260052048 -323.4999587047905 Z " stroke="#000000" stroke-width="0.35 px" style="stroke-width:0.35;stroke-miterlimit:4;stroke-dasharray:none;fill:#000000;fill-opacity:1.0;fill-rule: evenodd "/>
<title>b'2001'</title>
</g>
</svg>